<?xml version="1.0" encoding="utf-8"?>
<!-- Generator: Adobe Illustrator 20.0.0, SVG Export Plug-In . SVG Version: 6.00 Build 0)  -->
<svg version="1.1" id="Layer_1" xmlns="http://www.w3.org/2000/svg" xmlns:xlink="http://www.w3.org/1999/xlink" x="0px" y="0px"
	 viewBox="0 0 125.3 62.6" style="enable-background:new 0 0 125.3 62.6;" xml:space="preserve">
<style type="text/css">
	.st0{fill:url(#SVGID_1_);}
	.st1{fill:url(#SVGID_2_);}
	.st2{fill:url(#SVGID_3_);}
	.st3{fill:url(#SVGID_4_);}
</style>
<g>
	<linearGradient id="SVGID_1_" gradientUnits="userSpaceOnUse" x1="70.352" y1="13.9795" x2="70.352" y2="47.8545">
		<stop  offset="0" style="stop-color:#C7D100"/>
		<stop  offset="1" style="stop-color:#A0BB1C"/>
	</linearGradient>
	<polygon class="st0" points="66.1,47.9 81.5,17.4 74.6,14 59.2,44.4 	"/>
	<linearGradient id="SVGID_2_" gradientUnits="userSpaceOnUse" x1="52.5644" y1="13.9795" x2="52.5644" y2="47.8545">
		<stop  offset="0" style="stop-color:#C7D100"/>
		<stop  offset="1" style="stop-color:#A0BB1C"/>
	</linearGradient>
	<polygon class="st1" points="63.7,17.4 56.9,14 41.4,44.4 48.3,47.9 	"/>
	<linearGradient id="SVGID_3_" gradientUnits="userSpaceOnUse" x1="97.8647" y1="15.6104" x2="97.8647" y2="46.7969">
		<stop  offset="0" style="stop-color:#C7D100"/>
		<stop  offset="1" style="stop-color:#A0BB1C"/>
	</linearGradient>
	<path class="st2" d="M94,35.7h4.7c6.9,0,10.6-4.9,10.6-10c0-5.1-3.7-10-10.6-10H86.4v31.2H94V35.7z M94,22.5h4.3
		c2.1,0,3.3,1.5,3.3,3.2c0,1.6-1.2,3.2-3.3,3.2H94V22.5z"/>
	<linearGradient id="SVGID_4_" gradientUnits="userSpaceOnUse" x1="26.1967" y1="15.6104" x2="26.1967" y2="46.7969">
		<stop  offset="0" style="stop-color:#C7D100"/>
		<stop  offset="1" style="stop-color:#A0BB1C"/>
	</linearGradient>
	<polygon class="st3" points="36.6,40 23.5,40 23.5,15.6 15.8,15.6 15.8,46.8 36.6,46.8 	"/>
</g>
</svg>
